<?xml version="1.0" encoding="utf-8"?>
<!-- Generator: Adobe Illustrator 23.0.6, SVG Export Plug-In . SVG Version: 6.00 Build 0)  -->
<svg version="1.1" id="Layer_1" xmlns="http://www.w3.org/2000/svg" xmlns:xlink="http://www.w3.org/1999/xlink" x="0px" y="0px"
	 viewBox="0 0 600 76.6" style="enable-background:new 0 0 600 76.6;" xml:space="preserve">
<style type="text/css">
	<!-- .st0{fill:none;stroke:#E7E6DD;stroke-miterlimit:10;}
	.st1{fill:none;stroke:#E7E6DD;stroke-width:0.93;stroke-miterlimit:10;}
	.st2{fill:#064694;}
	.st3{fill:#0F3D8A;}
	.st4{fill:#FFFFFF;}
	.st5{fill:#2D65A8;}
	.st6{fill:none;stroke:#CFD64D;stroke-width:1.8074;stroke-miterlimit:10;}
	.st7{fill:none;stroke:#092E8C;stroke-width:0.794;stroke-miterlimit:10;}
	.st8{fill:#E7E6DD;} -->
	.st0{fill:none;stroke:#E7E6DD;stroke-miterlimit:10;}
	.st1{fill:none;stroke:#E7E6DD;stroke-width:0.93;stroke-miterlimit:10;}
	.st2{fill:#064694;}
	.st3{fill:#3f913f;}
	.st4{fill:#FFFFFF;}
	.st5{fill:#FF0000;}
	.st6{fill:none;stroke:#008000;stroke-width:1.8074;stroke-miterlimit:10;}
	.st7{fill:none;stroke:#000000;stroke-width:0.794;stroke-miterlimit:10;}
	.st8{fill:#646964;}

	#english{ 
		opacity:0;
		<!-- fill:red; -->
		-webkit-animation:linear infinite;
    -webkit-animation-name: hideEnglish;
    -webkit-animation-duration: 15s;
	-webkit-animation-delay: 15s;
		}
	#hindi{ 
		opacity:0;
	-webkit-animation:linear infinite;
    -webkit-animation-name: hideHindi;
    -webkit-animation-duration: 15s;
	
	}
	
	#english-first{ 
		opacity:0;
		-webkit-animation:linear;
    -webkit-animation-name: hideEnglish1;
    -webkit-animation-duration: 15s;
	-webkit-animation-iteration-count: 1;
		}
	
	<!-- #mask-train{ background-color:#ababab;fill:#EFEFEF;} -->
	#train_1_{
	transform: translateX(-100%);
    -webkit-animation:linear infinite;
    -webkit-animation-name: run;
    -webkit-animation-duration: 15s;
	<!-- opacity:.5; -->
	}     
	@keyframes run {
		0% { transform: translateX(-100%);  }
  30% { transform: translateX(100%);  }
  55% { transform: translateX(100%);  }
  85% { transform: translateX(-100%);}
  100% { transform: translateX(-100%);  }
  }
@keyframes hideHindi {
  0% { opacity: 0;}
  15% { opacity: 0;  }
  16% { opacity: 0;  }
  70% { opacity: 0;}
  71% { opacity: 0;  }
  
  100% { opacity: 0;  }
}

@keyframes hideEnglish1 {
  0% { opacity: 0;}
  
  14.7% { opacity: 0; }
  15.1% { opacity: 0; }
  70% { opacity: 0;}
  71% { opacity: 0; }
  
  100% { opacity: 0; }
}
@keyframes hideEnglish {
  0% { opacity: 0;}
  
  14.7% { opacity: 0; }
  15.1% { opacity: 0; }
  70% { opacity: 0;}
  71% { opacity: 0; }
  
  100% { opacity: 0; }
}
</style>
<g id="bridge">
	<g id="bridge_1_">
		<line class="st0" x1="0" y1="26.6" x2="600" y2="26.6"/>
		<line class="st1" x1="16" y1="39.1" x2="584" y2="39.1"/>
		<line class="st1" x1="35.5" y1="38.6" x2="35.5" y2="76.6"/>
		<line class="st1" x1="49.5" y1="38.6" x2="49.5" y2="76.6"/>
		<line class="st1" x1="138.1" y1="38.6" x2="138.1" y2="76.6"/>
		<line class="st1" x1="152.1" y1="38.6" x2="152.1" y2="76.6"/>
		<line class="st1" x1="240.7" y1="38.6" x2="240.7" y2="76.6"/>
		<line class="st1" x1="254.7" y1="38.6" x2="254.7" y2="76.6"/>
		<line class="st1" x1="343.3" y1="38.6" x2="343.3" y2="76.6"/>
		<line class="st1" x1="357.3" y1="38.6" x2="357.3" y2="76.6"/>
		<line class="st1" x1="445.9" y1="38.6" x2="445.9" y2="76.6"/>
		<line class="st1" x1="459.9" y1="38.6" x2="459.9" y2="76.6"/>
		<line class="st1" x1="548.5" y1="38.6" x2="548.5" y2="76.6"/>
		<line class="st1" x1="562.5" y1="38.6" x2="562.5" y2="76.6"/>
	</g>
</g>
<g id="english">
	<path class="st2" d="M116.2,21.4V10.2h-0.1l-3.7,8.8h-1.6l-3.7-8.8H107v11.2h-1.9V7.1h2.7l3.8,9.1h0l3.8-9.1h2.7v14.3H116.2z"/>
	<path class="st2" d="M126.5,21.4c0-0.2-0.1-0.8-0.1-1h-0.1c-0.8,0.9-1.7,1.3-2.9,1.3c-1.9,0-3.5-1-3.5-2.9c0-2.4,2.2-3.2,3.9-3.2
		h2.5v-1.2c0-1.3-0.8-1.9-2.1-1.9c-1.1,0-2.1,0.4-2.1,1.4v0.3h-1.7v-0.2c0-2.1,1.9-2.9,3.8-2.9c2.1,0,3.9,0.8,3.9,3.1v5.2
		c0,0.6,0.1,1.7,0.2,2.1H126.5z M126.4,16.8H124c-1.2,0-2.2,0.4-2.2,1.7c0,1.1,0.9,1.6,2,1.6c1.7,0,2.6-0.9,2.6-2.3V16.8z"/>
	<path class="st2" d="M136.9,21.4V15c0-1.6-0.8-2.4-2-2.4c-1.4,0-2.5,1.1-2.5,2.9v5.8h-1.8V7.1h1.8v5.6h0c0.7-1.1,1.7-1.7,3-1.7
		c2.2,0,3.3,1.5,3.3,3.5v6.9H136.9z"/>
	<path class="st2" d="M147,21.4c0-0.2-0.1-0.8-0.1-1h-0.1c-0.8,0.9-1.7,1.3-2.9,1.3c-1.9,0-3.5-1-3.5-2.9c0-2.4,2.2-3.2,3.9-3.2h2.5
		v-1.2c0-1.3-0.8-1.9-2.1-1.9c-1.1,0-2.1,0.4-2.1,1.4v0.3H141v-0.2c0-2.1,1.9-2.9,3.8-2.9c2.1,0,3.9,0.8,3.9,3.1v5.2
		c0,0.6,0.1,1.7,0.2,2.1H147z M146.9,16.8h-2.4c-1.2,0-2.2,0.4-2.2,1.7c0,1.1,0.9,1.6,2,1.6c1.7,0,2.6-0.9,2.6-2.3V16.8z"/>
	<path class="st2" d="M166.5,21.4V10.2h-0.1l-3.7,8.8h-1.6l-3.7-8.8h-0.1v11.2h-1.9V7.1h2.7l3.8,9.1h0l3.8-9.1h2.7v14.3H166.5z"/>
	<path class="st2" d="M177.3,21.4v-1.5h-0.1c-0.7,1.1-1.7,1.7-3,1.7c-2.2,0-3.3-1.6-3.3-3.5v-6.9h1.8v6.3c0,1.6,0.8,2.4,2,2.4
		c1.4,0,2.5-1.1,2.5-2.9v-5.9h1.9v10.1H177.3z"/>
	<path class="st2" d="M193.8,21.4V15c0-1.5-0.7-2.4-1.9-2.4c-1.4,0-2.4,1.3-2.4,2.8v5.9h-1.8V15c0-1.5-0.6-2.4-1.9-2.4
		c-1.1,0-2.4,1-2.4,2.8v6h-1.8V11.2h1.8v1.5h0c0.7-1.1,1.7-1.7,3.1-1.7c1.5,0,2.4,0.7,2.9,1.7c0,0,0.1,0,0.1,0
		c0.7-1,1.7-1.7,3.2-1.7c2,0,3.3,1.4,3.3,3.3v7H193.8z"/>
	<path class="st2" d="M202.5,21.6c-1.1,0-2.2-0.6-2.7-1.3h0v1.1H198V7.1h1.8v5.5h0c0.7-1,1.8-1.6,2.9-1.6c2.2,0,3.7,1.4,3.7,3.6v3.1
		C206.4,20.4,204.5,21.6,202.5,21.6z M204.6,14.8c0-1.2-0.8-2.2-2.3-2.2c-1.2,0-2.5,1-2.5,2.5v2.6c0,1.5,1.3,2.4,2.5,2.4
		c1.1,0,2.2-0.7,2.2-2.3V14.8z"/>
	<path class="st2" d="M214.3,21.4c0-0.2-0.1-0.8-0.1-1h-0.1c-0.8,0.9-1.7,1.3-2.9,1.3c-1.9,0-3.5-1-3.5-2.9c0-2.4,2.2-3.2,3.9-3.2
		h2.5v-1.2c0-1.3-0.8-1.9-2.1-1.9c-1.1,0-2.1,0.4-2.1,1.4v0.3h-1.7v-0.2c0-2.1,1.9-2.9,3.8-2.9c2.1,0,3.9,0.8,3.9,3.1v5.2
		c0,0.6,0.1,1.7,0.2,2.1H214.3z M214.2,16.8h-2.4c-1.2,0-2.2,0.4-2.2,1.7c0,1.1,0.9,1.6,2,1.6c1.7,0,2.6-0.9,2.6-2.3V16.8z"/>
	<path class="st2" d="M218.4,9.2V7h1.8v2.2H218.4z M218.4,21.4V11.2h1.8v10.1H218.4z"/>
	<path class="st2" d="M238.1,21.4V10.2H238l-3.7,8.8h-1.6l-3.7-8.8H229v11.2h-1.9V7.1h2.7l3.8,9.1h0l3.8-9.1h2.7v14.3H238.1z"/>
	<path class="st2" d="M246.6,21.6c-2.5,0-4.6-1.3-4.6-4.1v-2.1c0-2.8,1.9-4.3,4.4-4.3c2.3,0,4.1,1.4,4.1,4v1.8h-6.5v0.6
		c0,1.5,1.1,2.6,2.8,2.6c0.9,0,1.8-0.6,2.4-1.3l1.4,0.7C249.6,20.9,248.1,21.6,246.6,21.6z M248.6,15c0-1.4-0.7-2.4-2.3-2.4
		c-1.5,0-2.5,0.9-2.5,2.4v0.5h4.7V15z"/>
	<path class="st2" d="M255.6,21.5c-1.3,0-2.7-0.5-2.7-2.4v-6.4h-1.7v-1.5h1.6V8h1.8v3.3h2.8v1.5h-2.8v6c0,0.9,0.5,1.2,1.2,1.2
		c0.6,0,1.1-0.1,1.6-0.3v1.5C256.9,21.4,256,21.5,255.6,21.5z"/>
	<path class="st2" d="M263.6,12.8c-0.3,0-0.9,0.1-1.2,0.2c-1,0.4-1.8,1.4-1.8,2.9v5.5h-1.8V11.2h1.8V13h0c0.8-1.2,2-2,3.3-2
		c0.3,0,0.7,0.1,0.9,0.1v1.7C264.7,12.8,263.7,12.8,263.6,12.8z"/>
	<path class="st2" d="M270.2,21.6c-2.5,0-4.3-1.4-4.3-4v-2.4c0-2.7,1.9-4.2,4.2-4.2c2.5,0,4.3,1.6,4.3,4.2v2.2
		C274.4,20.1,272.5,21.6,270.2,21.6z M272.5,15.1c0-1.5-0.7-2.5-2.4-2.5c-1.5,0-2.4,0.9-2.4,2.6v2.4c0,1.5,0.7,2.5,2.4,2.5
		c1.5,0,2.4-0.9,2.4-2.6V15.1z"/>
	<path class="st2" d="M285.9,21.6c-3,0-5.4-1.7-5.4-4.8V12c0-3.3,2.5-5.2,5.4-5.2c3.1,0,5.5,1.8,5.5,5v4.7
		C291.4,19.7,288.8,21.6,285.9,21.6z M285.8,8.6c-1.9,0-3.4,1.2-3.4,3.3v4.7c0,2,1.4,3.2,3.5,3.2c1.9,0,3.4-1.1,3.4-3.2v-4.8
		C289.4,9.8,288,8.6,285.8,8.6z"/>
	<path class="st2" d="M298.1,21.6c-1.1,0-2.2-0.5-2.7-1.3h-0.1v5h-1.8V11.2h1.8v1.4h0c0.7-1.1,1.8-1.6,2.9-1.6
		c2.2,0,3.7,1.4,3.7,3.6v3.1C302,20.4,300.1,21.6,298.1,21.6z M300.1,14.8c0-1.2-0.8-2.2-2.3-2.2c-1.2,0-2.5,1-2.5,2.5v2.6
		c0,1.5,1.3,2.4,2.5,2.4c1.1,0,2.2-0.7,2.2-2.3V14.8z"/>
	<path class="st2" d="M308.1,21.6c-2.5,0-4.6-1.3-4.6-4.1v-2.1c0-2.8,1.9-4.3,4.4-4.3c2.3,0,4.1,1.4,4.1,4v1.8h-6.5v0.6
		c0,1.5,1.1,2.6,2.8,2.6c0.9,0,1.8-0.6,2.4-1.3l1.4,0.7C311,20.9,309.6,21.6,308.1,21.6z M310.1,15c0-1.4-0.7-2.4-2.3-2.4
		c-1.5,0-2.5,0.9-2.5,2.4v0.5h4.7V15z"/>
	<path class="st2" d="M318.5,12.8c-0.3,0-0.9,0.1-1.2,0.2c-1,0.4-1.8,1.4-1.8,2.9v5.5h-1.8V11.2h1.8V13h0c0.8-1.2,2-2,3.3-2
		c0.3,0,0.7,0.1,0.9,0.1v1.7C319.6,12.8,318.6,12.8,318.5,12.8z"/>
	<path class="st2" d="M327.2,21.4c0-0.2-0.1-0.8-0.1-1h-0.1c-0.8,0.9-1.7,1.3-2.9,1.3c-1.9,0-3.5-1-3.5-2.9c0-2.4,2.2-3.2,3.9-3.2
		h2.5v-1.2c0-1.3-0.8-1.9-2.1-1.9c-1.1,0-2.1,0.4-2.1,1.4v0.3h-1.7v-0.2c0-2.1,1.9-2.9,3.8-2.9c2.1,0,3.9,0.8,3.9,3.1v5.2
		c0,0.6,0.1,1.7,0.2,2.1H327.2z M327.1,16.8h-2.4c-1.2,0-2.2,0.4-2.2,1.7c0,1.1,0.9,1.6,2,1.6c1.7,0,2.6-0.9,2.6-2.3V16.8z"/>
	<path class="st2" d="M334.5,21.5c-1.3,0-2.7-0.5-2.7-2.4v-6.4h-1.7v-1.5h1.6V8h1.8v3.3h2.8v1.5h-2.8v6c0,0.9,0.5,1.2,1.2,1.2
		c0.6,0,1.1-0.1,1.6-0.3v1.5C335.8,21.4,334.9,21.5,334.5,21.5z"/>
	<path class="st2" d="M337.8,9.2V7h1.8v2.2H337.8z M337.8,21.4V11.2h1.8v10.1H337.8z"/>
	<path class="st2" d="M345.9,21.6c-2.5,0-4.3-1.4-4.3-4v-2.4c0-2.7,1.9-4.2,4.2-4.2c2.5,0,4.3,1.6,4.3,4.2v2.2
		C350.1,20.1,348.2,21.6,345.9,21.6z M348.2,15.1c0-1.5-0.7-2.5-2.4-2.5c-1.5,0-2.4,0.9-2.4,2.6v2.4c0,1.5,0.7,2.5,2.4,2.5
		c1.5,0,2.4-0.9,2.4-2.6V15.1z"/>
	<path class="st2" d="M358.4,21.4V15c0-1.6-0.8-2.4-2-2.4c-1.4,0-2.5,1.1-2.5,2.9v5.8h-1.8V11.2h1.8v1.5h0c0.7-1.1,1.7-1.7,3.1-1.7
		c2.2,0,3.3,1.5,3.3,3.5v6.9H358.4z"/>
	<path class="st2" d="M372.2,21.6c-3,0-5.5-1.5-5.5-4.8V12c0-3.1,2.3-5.1,5.4-5.1c2.9,0,5.2,1.6,5.2,4.2v0.5h-1.9v-0.3
		c0-1.7-1.4-2.7-3.3-2.7c-1.9,0-3.4,1.1-3.4,3.2v4.8c0,2,1.4,3.2,3.5,3.2c1.9,0,3.2-1,3.2-2.7v-0.3h1.9v0.5
		C377.3,20.2,374.7,21.6,372.2,21.6z"/>
	<path class="st2" d="M383.1,21.6c-2.5,0-4.3-1.4-4.3-4v-2.4c0-2.7,1.9-4.2,4.2-4.2c2.5,0,4.3,1.6,4.3,4.2v2.2
		C387.3,20.1,385.4,21.6,383.1,21.6z M385.4,15.1c0-1.5-0.7-2.5-2.4-2.5c-1.5,0-2.4,0.9-2.4,2.6v2.4c0,1.5,0.7,2.5,2.4,2.5
		c1.5,0,2.4-0.9,2.4-2.6V15.1z"/>
	<path class="st2" d="M394,12.8c-0.3,0-0.9,0.1-1.2,0.2c-1,0.4-1.8,1.4-1.8,2.9v5.5h-1.8V11.2h1.8V13h0c0.8-1.2,2-2,3.3-2
		c0.3,0,0.7,0.1,0.9,0.1v1.7C395,12.8,394.1,12.8,394,12.8z"/>
	<path class="st2" d="M401.3,21.6c-1.1,0-2.2-0.5-2.7-1.3h-0.1v5h-1.8V11.2h1.8v1.4h0c0.7-1.1,1.8-1.6,2.9-1.6
		c2.2,0,3.7,1.4,3.7,3.6v3.1C405.2,20.4,403.3,21.6,401.3,21.6z M403.3,14.8c0-1.2-0.8-2.2-2.3-2.2c-1.2,0-2.5,1-2.5,2.5v2.6
		c0,1.5,1.3,2.4,2.5,2.4c1.1,0,2.2-0.7,2.2-2.3V14.8z"/>
	<path class="st2" d="M411,21.6c-2.5,0-4.3-1.4-4.3-4v-2.4c0-2.7,1.9-4.2,4.2-4.2c2.5,0,4.3,1.6,4.3,4.2v2.2
		C415.2,20.1,413.3,21.6,411,21.6z M413.3,15.1c0-1.5-0.7-2.5-2.4-2.5c-1.5,0-2.4,0.9-2.4,2.6v2.4c0,1.5,0.7,2.5,2.4,2.5
		c1.5,0,2.4-0.9,2.4-2.6V15.1z"/>
	<path class="st2" d="M421.9,12.8c-0.3,0-0.9,0.1-1.2,0.2c-1,0.4-1.8,1.4-1.8,2.9v5.5h-1.8V11.2h1.8V13h0c0.8-1.2,2-2,3.3-2
		c0.3,0,0.7,0.1,0.9,0.1v1.7C422.9,12.8,422,12.8,421.9,12.8z"/>
	<path class="st2" d="M430.5,21.4c0-0.2-0.1-0.8-0.1-1h-0.1c-0.8,0.9-1.7,1.3-2.9,1.3c-1.9,0-3.5-1-3.5-2.9c0-2.4,2.2-3.2,3.9-3.2
		h2.5v-1.2c0-1.3-0.8-1.9-2.1-1.9c-1.1,0-2.1,0.4-2.1,1.4v0.3h-1.7v-0.2c0-2.1,1.9-2.9,3.8-2.9c2.1,0,3.9,0.8,3.9,3.1v5.2
		c0,0.6,0.1,1.7,0.2,2.1H430.5z M430.4,16.8H428c-1.2,0-2.2,0.4-2.2,1.7c0,1.1,0.9,1.6,2,1.6c1.7,0,2.6-0.9,2.6-2.3V16.8z"/>
	<path class="st2" d="M437.8,21.5c-1.3,0-2.7-0.5-2.7-2.4v-6.4h-1.7v-1.5h1.6V8h1.8v3.3h2.8v1.5H437v6c0,0.9,0.5,1.2,1.2,1.2
		c0.6,0,1.1-0.1,1.6-0.3v1.5C439.1,21.4,438.3,21.5,437.8,21.5z"/>
	<path class="st2" d="M441.2,9.2V7h1.8v2.2H441.2z M441.2,21.4V11.2h1.8v10.1H441.2z"/>
	<path class="st2" d="M449.2,21.6c-2.5,0-4.3-1.4-4.3-4v-2.4c0-2.7,1.9-4.2,4.2-4.2c2.5,0,4.3,1.6,4.3,4.2v2.2
		C453.5,20.1,451.5,21.6,449.2,21.6z M451.6,15.1c0-1.5-0.7-2.5-2.4-2.5c-1.5,0-2.4,0.9-2.4,2.6v2.4c0,1.5,0.7,2.5,2.4,2.5
		c1.5,0,2.4-0.9,2.4-2.6V15.1z"/>
	<path class="st2" d="M461.8,21.4V15c0-1.6-0.8-2.4-2-2.4c-1.4,0-2.5,1.1-2.5,2.9v5.8h-1.8V11.2h1.8v1.5h0c0.7-1.1,1.7-1.7,3.1-1.7
		c2.2,0,3.3,1.5,3.3,3.5v6.9H461.8z"/>
	<path class="st2" d="M470.4,21.4V7.1h2v12.5h6.9v1.7H470.4z"/>
	<path class="st2" d="M484.1,21.5c-1.3,0-2.7-0.5-2.7-2.4v-6.4h-1.7v-1.5h1.6V8h1.8v3.3h2.8v1.5h-2.8v6c0,0.9,0.5,1.2,1.2,1.2
		c0.6,0,1.1-0.1,1.6-0.3v1.5C485.4,21.4,484.5,21.5,484.1,21.5z"/>
	<path class="st2" d="M493.6,21.4v-1.3h0c-0.6,0.9-1.8,1.5-2.9,1.5c-2.2,0-3.7-1.4-3.7-3.6v-3.1c0-2.6,2-3.8,4-3.8
		c1,0,2.1,0.5,2.6,1.3h0.1V7.1h1.8v14.3H493.6z M493.6,14.9c0-1.5-1.2-2.3-2.5-2.3c-1.1,0-2.3,0.7-2.3,2.3v3c0,1.2,0.8,2.2,2.3,2.2
		c1.2,0,2.5-0.9,2.5-2.4V14.9z"/>
</g>
<g id="english-first">
	<path class="st2" d="M116.2,21.4V10.2h-0.1l-3.7,8.8h-1.6l-3.7-8.8H107v11.2h-1.9V7.1h2.7l3.8,9.1h0l3.8-9.1h2.7v14.3H116.2z"/>
	<path class="st2" d="M126.5,21.4c0-0.2-0.1-0.8-0.1-1h-0.1c-0.8,0.9-1.7,1.3-2.9,1.3c-1.9,0-3.5-1-3.5-2.9c0-2.4,2.2-3.2,3.9-3.2
		h2.5v-1.2c0-1.3-0.8-1.9-2.1-1.9c-1.1,0-2.1,0.4-2.1,1.4v0.3h-1.7v-0.2c0-2.1,1.9-2.9,3.8-2.9c2.1,0,3.9,0.8,3.9,3.1v5.2
		c0,0.6,0.1,1.7,0.2,2.1H126.5z M126.4,16.8H124c-1.2,0-2.2,0.4-2.2,1.7c0,1.1,0.9,1.6,2,1.6c1.7,0,2.6-0.9,2.6-2.3V16.8z"/>
	<path class="st2" d="M136.9,21.4V15c0-1.6-0.8-2.4-2-2.4c-1.4,0-2.5,1.1-2.5,2.9v5.8h-1.8V7.1h1.8v5.6h0c0.7-1.1,1.7-1.7,3-1.7
		c2.2,0,3.3,1.5,3.3,3.5v6.9H136.9z"/>
	<path class="st2" d="M147,21.4c0-0.2-0.1-0.8-0.1-1h-0.1c-0.8,0.9-1.7,1.3-2.9,1.3c-1.9,0-3.5-1-3.5-2.9c0-2.4,2.2-3.2,3.9-3.2h2.5
		v-1.2c0-1.3-0.8-1.9-2.1-1.9c-1.1,0-2.1,0.4-2.1,1.4v0.3H141v-0.2c0-2.1,1.9-2.9,3.8-2.9c2.1,0,3.9,0.8,3.9,3.1v5.2
		c0,0.6,0.1,1.7,0.2,2.1H147z M146.9,16.8h-2.4c-1.2,0-2.2,0.4-2.2,1.7c0,1.1,0.9,1.6,2,1.6c1.7,0,2.6-0.9,2.6-2.3V16.8z"/>
	<path class="st2" d="M166.5,21.4V10.2h-0.1l-3.7,8.8h-1.6l-3.7-8.8h-0.1v11.2h-1.9V7.1h2.7l3.8,9.1h0l3.8-9.1h2.7v14.3H166.5z"/>
	<path class="st2" d="M177.3,21.4v-1.5h-0.1c-0.7,1.1-1.7,1.7-3,1.7c-2.2,0-3.3-1.6-3.3-3.5v-6.9h1.8v6.3c0,1.6,0.8,2.4,2,2.4
		c1.4,0,2.5-1.1,2.5-2.9v-5.9h1.9v10.1H177.3z"/>
	<path class="st2" d="M193.8,21.4V15c0-1.5-0.7-2.4-1.9-2.4c-1.4,0-2.4,1.3-2.4,2.8v5.9h-1.8V15c0-1.5-0.6-2.4-1.9-2.4
		c-1.1,0-2.4,1-2.4,2.8v6h-1.8V11.2h1.8v1.5h0c0.7-1.1,1.7-1.7,3.1-1.7c1.5,0,2.4,0.7,2.9,1.7c0,0,0.1,0,0.1,0
		c0.7-1,1.7-1.7,3.2-1.7c2,0,3.3,1.4,3.3,3.3v7H193.8z"/>
	<path class="st2" d="M202.5,21.6c-1.1,0-2.2-0.6-2.7-1.3h0v1.1H198V7.1h1.8v5.5h0c0.7-1,1.8-1.6,2.9-1.6c2.2,0,3.7,1.4,3.7,3.6v3.1
		C206.4,20.4,204.5,21.6,202.5,21.6z M204.6,14.8c0-1.2-0.8-2.2-2.3-2.2c-1.2,0-2.5,1-2.5,2.5v2.6c0,1.5,1.3,2.4,2.5,2.4
		c1.1,0,2.2-0.7,2.2-2.3V14.8z"/>
	<path class="st2" d="M214.3,21.4c0-0.2-0.1-0.8-0.1-1h-0.1c-0.8,0.9-1.7,1.3-2.9,1.3c-1.9,0-3.5-1-3.5-2.9c0-2.4,2.2-3.2,3.9-3.2
		h2.5v-1.2c0-1.3-0.8-1.9-2.1-1.9c-1.1,0-2.1,0.4-2.1,1.4v0.3h-1.7v-0.2c0-2.1,1.9-2.9,3.8-2.9c2.1,0,3.9,0.8,3.9,3.1v5.2
		c0,0.6,0.1,1.7,0.2,2.1H214.3z M214.2,16.8h-2.4c-1.2,0-2.2,0.4-2.2,1.7c0,1.1,0.9,1.6,2,1.6c1.7,0,2.6-0.9,2.6-2.3V16.8z"/>
	<path class="st2" d="M218.4,9.2V7h1.8v2.2H218.4z M218.4,21.4V11.2h1.8v10.1H218.4z"/>
	<path class="st2" d="M238.1,21.4V10.2H238l-3.7,8.8h-1.6l-3.7-8.8H229v11.2h-1.9V7.1h2.7l3.8,9.1h0l3.8-9.1h2.7v14.3H238.1z"/>
	<path class="st2" d="M246.6,21.6c-2.5,0-4.6-1.3-4.6-4.1v-2.1c0-2.8,1.9-4.3,4.4-4.3c2.3,0,4.1,1.4,4.1,4v1.8h-6.5v0.6
		c0,1.5,1.1,2.6,2.8,2.6c0.9,0,1.8-0.6,2.4-1.3l1.4,0.7C249.6,20.9,248.1,21.6,246.6,21.6z M248.6,15c0-1.4-0.7-2.4-2.3-2.4
		c-1.5,0-2.5,0.9-2.5,2.4v0.5h4.7V15z"/>
	<path class="st2" d="M255.6,21.5c-1.3,0-2.7-0.5-2.7-2.4v-6.4h-1.7v-1.5h1.6V8h1.8v3.3h2.8v1.5h-2.8v6c0,0.9,0.5,1.2,1.2,1.2
		c0.6,0,1.1-0.1,1.6-0.3v1.5C256.9,21.4,256,21.5,255.6,21.5z"/>
	<path class="st2" d="M263.6,12.8c-0.3,0-0.9,0.1-1.2,0.2c-1,0.4-1.8,1.4-1.8,2.9v5.5h-1.8V11.2h1.8V13h0c0.8-1.2,2-2,3.3-2
		c0.3,0,0.7,0.1,0.9,0.1v1.7C264.7,12.8,263.7,12.8,263.6,12.8z"/>
	<path class="st2" d="M270.2,21.6c-2.5,0-4.3-1.4-4.3-4v-2.4c0-2.7,1.9-4.2,4.2-4.2c2.5,0,4.3,1.6,4.3,4.2v2.2
		C274.4,20.1,272.5,21.6,270.2,21.6z M272.5,15.1c0-1.5-0.7-2.5-2.4-2.5c-1.5,0-2.4,0.9-2.4,2.6v2.4c0,1.5,0.7,2.5,2.4,2.5
		c1.5,0,2.4-0.9,2.4-2.6V15.1z"/>
	<path class="st2" d="M285.9,21.6c-3,0-5.4-1.7-5.4-4.8V12c0-3.3,2.5-5.2,5.4-5.2c3.1,0,5.5,1.8,5.5,5v4.7
		C291.4,19.7,288.8,21.6,285.9,21.6z M285.8,8.6c-1.9,0-3.4,1.2-3.4,3.3v4.7c0,2,1.4,3.2,3.5,3.2c1.9,0,3.4-1.1,3.4-3.2v-4.8
		C289.4,9.8,288,8.6,285.8,8.6z"/>
	<path class="st2" d="M298.1,21.6c-1.1,0-2.2-0.5-2.7-1.3h-0.1v5h-1.8V11.2h1.8v1.4h0c0.7-1.1,1.8-1.6,2.9-1.6
		c2.2,0,3.7,1.4,3.7,3.6v3.1C302,20.4,300.1,21.6,298.1,21.6z M300.1,14.8c0-1.2-0.8-2.2-2.3-2.2c-1.2,0-2.5,1-2.5,2.5v2.6
		c0,1.5,1.3,2.4,2.5,2.4c1.1,0,2.2-0.7,2.2-2.3V14.8z"/>
	<path class="st2" d="M308.1,21.6c-2.5,0-4.6-1.3-4.6-4.1v-2.1c0-2.8,1.9-4.3,4.4-4.3c2.3,0,4.1,1.4,4.1,4v1.8h-6.5v0.6
		c0,1.5,1.1,2.6,2.8,2.6c0.9,0,1.8-0.6,2.4-1.3l1.4,0.7C311,20.9,309.6,21.6,308.1,21.6z M310.1,15c0-1.4-0.7-2.4-2.3-2.4
		c-1.5,0-2.5,0.9-2.5,2.4v0.5h4.7V15z"/>
	<path class="st2" d="M318.5,12.8c-0.3,0-0.9,0.1-1.2,0.2c-1,0.4-1.8,1.4-1.8,2.9v5.5h-1.8V11.2h1.8V13h0c0.8-1.2,2-2,3.3-2
		c0.3,0,0.7,0.1,0.9,0.1v1.7C319.6,12.8,318.6,12.8,318.5,12.8z"/>
	<path class="st2" d="M327.2,21.4c0-0.2-0.1-0.8-0.1-1h-0.1c-0.8,0.9-1.7,1.3-2.9,1.3c-1.9,0-3.5-1-3.5-2.9c0-2.4,2.2-3.2,3.9-3.2
		h2.5v-1.2c0-1.3-0.8-1.9-2.1-1.9c-1.1,0-2.1,0.4-2.1,1.4v0.3h-1.7v-0.2c0-2.1,1.9-2.9,3.8-2.9c2.1,0,3.9,0.8,3.9,3.1v5.2
		c0,0.6,0.1,1.7,0.2,2.1H327.2z M327.1,16.8h-2.4c-1.2,0-2.2,0.4-2.2,1.7c0,1.1,0.9,1.6,2,1.6c1.7,0,2.6-0.9,2.6-2.3V16.8z"/>
	<path class="st2" d="M334.5,21.5c-1.3,0-2.7-0.5-2.7-2.4v-6.4h-1.7v-1.5h1.6V8h1.8v3.3h2.8v1.5h-2.8v6c0,0.9,0.5,1.2,1.2,1.2
		c0.6,0,1.1-0.1,1.6-0.3v1.5C335.8,21.4,334.9,21.5,334.5,21.5z"/>
	<path class="st2" d="M337.8,9.2V7h1.8v2.2H337.8z M337.8,21.4V11.2h1.8v10.1H337.8z"/>
	<path class="st2" d="M345.9,21.6c-2.5,0-4.3-1.4-4.3-4v-2.4c0-2.7,1.9-4.2,4.2-4.2c2.5,0,4.3,1.6,4.3,4.2v2.2
		C350.1,20.1,348.2,21.6,345.9,21.6z M348.2,15.1c0-1.5-0.7-2.5-2.4-2.5c-1.5,0-2.4,0.9-2.4,2.6v2.4c0,1.5,0.7,2.5,2.4,2.5
		c1.5,0,2.4-0.9,2.4-2.6V15.1z"/>
	<path class="st2" d="M358.4,21.4V15c0-1.6-0.8-2.4-2-2.4c-1.4,0-2.5,1.1-2.5,2.9v5.8h-1.8V11.2h1.8v1.5h0c0.7-1.1,1.7-1.7,3.1-1.7
		c2.2,0,3.3,1.5,3.3,3.5v6.9H358.4z"/>
	<path class="st2" d="M372.2,21.6c-3,0-5.5-1.5-5.5-4.8V12c0-3.1,2.3-5.1,5.4-5.1c2.9,0,5.2,1.6,5.2,4.2v0.5h-1.9v-0.3
		c0-1.7-1.4-2.7-3.3-2.7c-1.9,0-3.4,1.1-3.4,3.2v4.8c0,2,1.4,3.2,3.5,3.2c1.9,0,3.2-1,3.2-2.7v-0.3h1.9v0.5
		C377.3,20.2,374.7,21.6,372.2,21.6z"/>
	<path class="st2" d="M383.1,21.6c-2.5,0-4.3-1.4-4.3-4v-2.4c0-2.7,1.9-4.2,4.2-4.2c2.5,0,4.3,1.6,4.3,4.2v2.2
		C387.3,20.1,385.4,21.6,383.1,21.6z M385.4,15.1c0-1.5-0.7-2.5-2.4-2.5c-1.5,0-2.4,0.9-2.4,2.6v2.4c0,1.5,0.7,2.5,2.4,2.5
		c1.5,0,2.4-0.9,2.4-2.6V15.1z"/>
	<path class="st2" d="M394,12.8c-0.3,0-0.9,0.1-1.2,0.2c-1,0.4-1.8,1.4-1.8,2.9v5.5h-1.8V11.2h1.8V13h0c0.8-1.2,2-2,3.3-2
		c0.3,0,0.7,0.1,0.9,0.1v1.7C395,12.8,394.1,12.8,394,12.8z"/>
	<path class="st2" d="M401.3,21.6c-1.1,0-2.2-0.5-2.7-1.3h-0.1v5h-1.8V11.2h1.8v1.4h0c0.7-1.1,1.8-1.6,2.9-1.6
		c2.2,0,3.7,1.4,3.7,3.6v3.1C405.2,20.4,403.3,21.6,401.3,21.6z M403.3,14.8c0-1.2-0.8-2.2-2.3-2.2c-1.2,0-2.5,1-2.5,2.5v2.6
		c0,1.5,1.3,2.4,2.5,2.4c1.1,0,2.2-0.7,2.2-2.3V14.8z"/>
	<path class="st2" d="M411,21.6c-2.5,0-4.3-1.4-4.3-4v-2.4c0-2.7,1.9-4.2,4.2-4.2c2.5,0,4.3,1.6,4.3,4.2v2.2
		C415.2,20.1,413.3,21.6,411,21.6z M413.3,15.1c0-1.5-0.7-2.5-2.4-2.5c-1.5,0-2.4,0.9-2.4,2.6v2.4c0,1.5,0.7,2.5,2.4,2.5
		c1.5,0,2.4-0.9,2.4-2.6V15.1z"/>
	<path class="st2" d="M421.9,12.8c-0.3,0-0.9,0.1-1.2,0.2c-1,0.4-1.8,1.4-1.8,2.9v5.5h-1.8V11.2h1.8V13h0c0.8-1.2,2-2,3.3-2
		c0.3,0,0.7,0.1,0.9,0.1v1.7C422.9,12.8,422,12.8,421.9,12.8z"/>
	<path class="st2" d="M430.5,21.4c0-0.2-0.1-0.8-0.1-1h-0.1c-0.8,0.9-1.7,1.3-2.9,1.3c-1.9,0-3.5-1-3.5-2.9c0-2.4,2.2-3.2,3.9-3.2
		h2.5v-1.2c0-1.3-0.8-1.9-2.1-1.9c-1.1,0-2.1,0.4-2.1,1.4v0.3h-1.7v-0.2c0-2.1,1.9-2.9,3.8-2.9c2.1,0,3.9,0.8,3.9,3.1v5.2
		c0,0.6,0.1,1.7,0.2,2.1H430.5z M430.4,16.8H428c-1.2,0-2.2,0.4-2.2,1.7c0,1.1,0.9,1.6,2,1.6c1.7,0,2.6-0.9,2.6-2.3V16.8z"/>
	<path class="st2" d="M437.8,21.5c-1.3,0-2.7-0.5-2.7-2.4v-6.4h-1.7v-1.5h1.6V8h1.8v3.3h2.8v1.5H437v6c0,0.9,0.5,1.2,1.2,1.2
		c0.6,0,1.1-0.1,1.6-0.3v1.5C439.1,21.4,438.3,21.5,437.8,21.5z"/>
	<path class="st2" d="M441.2,9.2V7h1.8v2.2H441.2z M441.2,21.4V11.2h1.8v10.1H441.2z"/>
	<path class="st2" d="M449.2,21.6c-2.5,0-4.3-1.4-4.3-4v-2.4c0-2.7,1.9-4.2,4.2-4.2c2.5,0,4.3,1.6,4.3,4.2v2.2
		C453.5,20.1,451.5,21.6,449.2,21.6z M451.6,15.1c0-1.5-0.7-2.5-2.4-2.5c-1.5,0-2.4,0.9-2.4,2.6v2.4c0,1.5,0.7,2.5,2.4,2.5
		c1.5,0,2.4-0.9,2.4-2.6V15.1z"/>
	<path class="st2" d="M461.8,21.4V15c0-1.6-0.8-2.4-2-2.4c-1.4,0-2.5,1.1-2.5,2.9v5.8h-1.8V11.2h1.8v1.5h0c0.7-1.1,1.7-1.7,3.1-1.7
		c2.2,0,3.3,1.5,3.3,3.5v6.9H461.8z"/>
	<path class="st2" d="M470.4,21.4V7.1h2v12.5h6.9v1.7H470.4z"/>
	<path class="st2" d="M484.1,21.5c-1.3,0-2.7-0.5-2.7-2.4v-6.4h-1.7v-1.5h1.6V8h1.8v3.3h2.8v1.5h-2.8v6c0,0.9,0.5,1.2,1.2,1.2
		c0.6,0,1.1-0.1,1.6-0.3v1.5C485.4,21.4,484.5,21.5,484.1,21.5z"/>
	<path class="st2" d="M493.6,21.4v-1.3h0c-0.6,0.9-1.8,1.5-2.9,1.5c-2.2,0-3.7-1.4-3.7-3.6v-3.1c0-2.6,2-3.8,4-3.8
		c1,0,2.1,0.5,2.6,1.3h0.1V7.1h1.8v14.3H493.6z M493.6,14.9c0-1.5-1.2-2.3-2.5-2.3c-1.1,0-2.3,0.7-2.3,2.3v3c0,1.2,0.8,2.2,2.3,2.2
		c1.2,0,2.5-0.9,2.5-2.4V14.9z"/>
</g> 
<path id="hindi" class="st2" d="M184.4,20.9h1.7V10.6h2.1V9.2h-11.4v1.4h2.5v4.1l-0.9,0.7c0,1,0.5,1.9,1.2,2.6h1.3v-1.8h3.5V20.9z
	 M184.4,10.6v4H181v-4H184.4z M195.6,21.2c-3.7-0.2-4.8-1.3-4.8-2.5c0-1,1-1.8,2.4-1.8c0.9,0,1.4,0.5,1.4,1c0,0.5-0.3,1-0.7,1.3
	l1.4,0.8c0.6-0.5,0.9-1.3,0.9-2c0-1.3-1-2.6-3-2.6c-0.6,0-1.1,0.1-1.6,0.3c-0.5-0.2-0.9-0.8-0.9-1.4c0-0.4,0.3-0.8,1-0.8h3.9v-3h1.9
	V9.2h-10.2v1.4h6.6v1.6h-2.6c-1.5,0-2.3,0.8-2.3,1.9c0,0.9,0.5,1.8,1.4,2.2c-0.7,0.5-1.2,1.3-1.2,2.2c0,2.4,2.4,3.7,5.8,4
	L195.6,21.2z M200.4,10.6h2.1V9.2h-5.9v1.4h2.1v10.3h1.7V10.6z M214.4,20.9h1.7V10.6h2.1V9.2h-11.4v1.4h2.5v4.1l-0.9,0.7
	c0,1,0.5,1.9,1.2,2.6h1.4v-1.8h3.5V20.9z M214.4,10.6v4H211v-4H214.4z M210.1,22.1l-1.2,1.1c1.3,1.8,3.4,3,5.6,3
	c2.6,0,3.6-1.6,3.6-3c0-1.5-1.2-2.7-2.7-2.7c-0.1,0-0.2,0-0.3,0c-1-0.1-2,0.4-2.7,1.2l1.2,1c0.3-0.5,0.9-0.8,1.4-0.8
	c0.7,0,1.2,0.5,1.3,1.2c0,0,0,0.1,0,0.1c0,1.1-0.9,1.6-1.9,1.6C212.7,24.7,211,23.7,210.1,22.1z M214.1,6.3c0,0.6,0.5,1.1,1.1,1.1
	c0,0,0,0,0,0c0.6,0,1.2-0.5,1.2-1.1c0,0,0,0,0,0c0-0.6-0.5-1.2-1.1-1.2c0,0,0,0-0.1,0C214.6,5.1,214.1,5.6,214.1,6.3
	C214.1,6.2,214.1,6.3,214.1,6.3L214.1,6.3z M226.4,20.9V10.6h2.1V9.2h-11.2v1.4h7.4v4.6c0,0.4-0.1,0.8-0.3,1.2l-3.3-2.7
	c0.4-0.2,0.8-0.4,1.3-0.4c0.4,0,0.8,0.1,1.2,0.2l-0.1-1.5c-0.4-0.1-0.8-0.2-1.3-0.1c-2-0.1-3.7,1.5-3.7,3.5c0,0,0,0.1,0,0.1
	c0,1.9,1.5,3.5,3.4,3.5c0.1,0,0.1,0,0.2,0c1,0,1.9-0.3,2.6-1.1h0.1v2.9H226.4z M222.3,17.7c-1.1,0.1-2.1-0.8-2.2-2
	c0-0.1,0-0.1,0-0.2c0-0.4,0.1-0.7,0.3-1l3.4,2.7C223.4,17.5,222.9,17.7,222.3,17.7z M235.5,5.8c0.4,0,0.8,0.1,1.2,0.3l0.5-1.4
	c-0.6-0.3-1.2-0.4-1.8-0.4c-1.5-0.1-2.7,1-2.8,2.5c0,0,0,0.1,0,0.1c0,0.9,0.4,1.8,1.2,2.2v0.1h-6.1v1.4h6.4v1.6h-2.5
	c-1.4,0-2.2,0.7-2.2,1.9c0.1,1.5,1.1,2.8,2.5,3.2l2.7-0.6c0.3,0.2,0.4,0.6,0.4,1c0,1.1-1.2,1.6-2.3,1.6h-0.5l-2.5-1.6
	c-0.4,0.2-0.7,0.6-0.7,1.1c0,0.9,0.8,1.9,2.8,1.9l3,2.6l1.8-1l-2.9-1.9v-0.1c1.5-0.1,3-1,3-2.7c0.1-1.1-0.5-2.1-1.5-2.5l-3,0.6
	c-0.6-0.2-1-0.7-1-1.2c0-0.5,0.2-0.9,1.2-0.9h3.4v-3h2.5V9.2h-2.6c-0.8-0.4-1.4-1.2-1.4-2.1c0-0.7,0.5-1.3,1.2-1.4
	C235.4,5.8,235.5,5.8,235.5,5.8z M250.1,20.9h1.7V10.6h2.1V9.2h-11.4v1.4h2.5v4.1l-0.9,0.7c0,1,0.5,1.9,1.2,2.6h1.4v-1.8h3.5V20.9z
	 M250.1,10.6v4h-3.5v-4H250.1z M250.3,9.4l1.4-0.1l-4.1-5l-1.9,0.4l1.5,1.7c0.9,1.1,1.9,2,3.1,2.9L250.3,9.4z M253,9.2v1.4h5.9v1.8
	l-1.9,0.6c-1.9,0.6-2.8,1.5-2.8,3.2c0.1,1.9,1.3,3.5,3.2,3.9l-2.6,2.6l1.9,0.5l2.1-2.5l2,2.5l1.9-0.5l-2.5-2.6
	c0.9-0.2,1.7-0.6,2.3-1.2l-0.9-1.4c-0.8,0.8-1.8,1.3-3,1.2c-1.3,0.1-2.5-0.8-2.6-2.2c0,0,0-0.1,0-0.1c0-1,0.3-1.6,2.1-2.1l2.6-0.7
	v-3h2.4V9.2L253,9.2z M266.1,20.9V10.6h2.1V9.2H266l-4-4.9L260,4.7l1.5,1.7c0.9,1,1.8,1.9,2.9,2.8h-2.1v1.4h2.1v10.3H266.1z
	 M280.3,14.7c-0.6,0-1.1-0.1-1.6-0.2c0-0.2,0.1-0.4,0.1-0.6v-3.3h3.2v3.8C281.4,14.6,280.9,14.7,280.3,14.7z M276,16.2L276,16.2
	c0.2,0,0.3,0,0.5,0c0.5,0,1-0.2,1.4-0.5c0.8,0.3,1.6,0.5,2.5,0.5c0.5,0,1,0,1.5-0.1v4.9h1.7V10.6h2.1V9.2h-13.3v1.4h4.6v3.2
	c0.1,0.5-0.3,1-0.8,1.1c-0.1,0-0.2,0-0.3,0c-0.6,0-1.2-0.4-1.6-0.9l-1.3,1l4.8,6.1l1.4-0.9l-2-2.5C276.8,17.1,276.4,16.7,276,16.2z
	 M281.7,6.3c0,0.6,0.5,1.1,1.1,1.1c0,0,0,0,0,0c0.6,0,1.2-0.5,1.2-1.1c0,0,0,0,0,0c0-0.6-0.5-1.2-1.1-1.2c0,0,0,0-0.1,0
	C282.2,5.1,281.6,5.6,281.7,6.3C281.6,6.2,281.6,6.3,281.7,6.3L281.7,6.3z M293.7,17.7L293.7,17.7l0.1,3.2h1.7V10.6h2.1V9.2h-12.7
	v1.4h8.9v3.7c0,2-1.2,3.2-2.9,3.2c-1.3,0-2-0.7-2-1.7c0-1.1,0.7-1.8,2.1-1.8h1.3v-1.5h-6.7v1.5h2.4v0.1c-0.6,0.5-0.9,1.2-0.9,1.9
	c0,1.6,1.3,3,3.4,3C291.7,19.1,292.9,18.6,293.7,17.7z M300.5,10.6h2.1V9.2h-5.9v1.4h2.1v10.3h1.7V10.6z M311.7,13.1L311.7,13.1
	c-0.5-0.4-1-0.6-1.5-0.5c-0.9,0-1.7,0.6-1.9,1.5h-0.1c-0.4-0.9-1.3-1.5-2.2-1.4c-1.7,0-3.1,1.4-3,3.1c0,0.1,0,0.2,0,0.3
	c0.1,2.2,1.3,4.1,3.3,5.1l1.1-1.2c-1.6-0.7-2.6-2.2-2.7-3.9c0-1.4,0.7-1.9,1.4-1.9c0.8,0,1.4,0.5,1.4,1.6v1.7h1.6v-1.7
	c0-1.2,0.5-1.7,1.4-1.7c0.5,0,0.9,0.2,1.3,0.5v6.3h1.7V10.6h2.1V9.2h-13.8v1.4h10V13.1z M316.9,17.3l0.9-0.4v-1.7h3.3v5.8h1.7V10.6
	h2.1V9.2h-10.3v1.4h6.5v3.1h-4.5l-1.2,0.9C315.4,15.7,316,16.7,316.9,17.3z M340.9,8.1l1.2-1c-1.5-2-3.8-3.1-6.3-3.1
	c-2.7,0-4.4,1.4-4.4,3.7v1.5h-2.1v1.4h2.1v10.3h1.7V10.6h2.1V9.2H333V7.7c0-1.4,1-2.2,2.7-2.2C337.7,5.5,339.6,6.5,340.9,8.1z
	 M336.5,17.3l0.9-0.4v-1.7h3.3v5.8h1.7V10.6h2.1V9.2h-10.3v1.4h6.5v3.1h-4.5l-1.2,0.9C335,15.7,335.6,16.7,336.5,17.3z M351,10.6
	v10.3h1.7V10.6h2.1V9.2h-11.1v1.4h2.6v3.5l-1.2,0.9c0,0.9,0.4,1.8,1.1,2.4h1.7v-6.8L351,10.6z M361.6,20.9h1.7V10.6h2.1V9.2h-11.4
	v1.4h2.5v4.1l-0.9,0.7c0,1,0.5,1.9,1.2,2.6h1.3v-1.8h3.5V20.9z M361.6,10.6v4h-3.5v-4H361.6z M384.7,8.1l1-1.1c-2.3-2-5.3-3.1-8.3-3
	c-3.8,0-5.7,1.5-5.7,3.9v1.2h-2.1v1.4h2.1v10.3h1.7V10.6h2.1V9.2h-2.1V8c0-1.5,1.1-2.4,3.9-2.4C380,5.5,382.7,6.4,384.7,8.1z
	 M384.7,13.1L384.7,13.1c-0.5-0.4-1-0.6-1.5-0.5c-0.9,0-1.7,0.6-1.9,1.5h-0.1c-0.4-0.9-1.3-1.5-2.2-1.4c-1.7,0-3,1.4-3,3.1
	c0,0.1,0,0.2,0,0.3c0.1,2.2,1.3,4.1,3.3,5.1l1.1-1.2c-1.6-0.7-2.6-2.2-2.7-3.9c0-1.4,0.7-1.9,1.4-1.9c0.8,0,1.4,0.5,1.4,1.6v1.7h1.6
	v-1.7c0-1.2,0.5-1.7,1.4-1.7c0.5,0,0.9,0.2,1.3,0.5v6.3h1.7V10.6h2.1V9.2h-13.8v1.4h10V13.1z M400.4,8.1l1.1-1c-1.8-2-4.3-3.1-7-3.1
	c-3,0-4.8,1.4-4.8,3.8v1.4h-2.1v1.4h2.1v10.3h1.7V10.6h2.1V9.2h-2.1V7.8c0-1.5,1-2.3,3.1-2.3C396.7,5.5,398.9,6.5,400.4,8.1z
	 M400.3,20.9h1.7V10.6h2.1V9.2h-11.4v1.4h2.5v4.1l-0.9,0.7c0,1,0.5,1.9,1.2,2.6h1.4v-1.8h3.5L400.3,20.9z M400.3,10.6v4h-3.5v-4
	H400.3z M403.2,9.2v1.4h5.9v1.8l-1.9,0.6c-1.9,0.6-2.8,1.5-2.8,3.2c0.1,2.4,2.1,4.2,4.5,4.1c0,0,0,0,0,0c1.4,0,2.7-0.5,3.7-1.4
	l-0.9-1.4c-0.8,0.8-1.8,1.3-3,1.2c-1.3,0.1-2.5-0.8-2.6-2.2c0,0,0-0.1,0-0.1c0-1,0.3-1.6,2.1-2.1l2.6-0.7v-3h2.4V9.2H403.2z
	 M407.4,4.6l-1.9,0.4l1.1,1.5c0.8,1.1,1.7,2,2.7,3l0.1,0.1l1.4-0.1L407.4,4.6z M423.2,10.6V9.2h-10.8v1.4h6.8v1.5h-2.5
	c-1-0.1-2,0.6-2.1,1.6c0,0.1,0,0.2,0,0.3c0.1,1.5,1.1,2.7,2.5,3.2l2.7-0.6c0.3,0.2,0.5,0.6,0.5,1c0,1.1-0.8,1.7-2.1,1.7
	c-1.6-0.1-3-1.1-3.6-2.6l-1.2,0.9c0.8,1.9,2.7,3.1,4.8,3.1c2.2,0,3.7-1.4,3.7-3.2c0-1.1-0.6-2.1-1.6-2.6l-3,0.6
	c-0.6-0.2-1-0.7-1-1.3c0-0.6,0.3-0.9,1.3-0.9h3.3v-3L423.2,10.6z"/>
	<g id="hindi">
		<path class="st2" d="M174.1,17.1H171v1.8h-1.6c-0.9-0.7-1.3-2-1.3-2.8l1-0.7v-3.8h-2.6V9.8h11.7v1.7h-2v10.2h-2.1V17.1z M171,11.5
			v3.7h3v-3.7H171z"/>
		<path class="st2" d="M184.8,23.5c-3.4-0.3-5.9-1.6-5.9-4.2c0-0.9,0.4-1.7,1.2-2.3c-0.9-0.5-1.4-1.3-1.4-2.3c0-1.2,0.9-2,2.5-2h2.4
			v-1.4h-6.4V9.8h10.4v1.7h-2v3h-3.9c-0.7,0-1,0.3-1,0.7c0,0.4,0.3,0.9,0.8,1.2c0.5-0.1,1.1-0.2,1.7-0.2c2,0,3.1,1.3,3.1,2.7
			c0,1-0.5,1.7-0.9,2.2l-1.7-1c0.4-0.4,0.7-0.8,0.7-1.3c0-0.5-0.4-0.8-1.2-0.8c-1.4,0-2.3,0.7-2.3,1.7c0,1.1,1,2.1,4.8,2.4
			L184.8,23.5z"/>
		<path class="st2" d="M190.7,21.7h-2.1V11.5h-2V9.8h6.1v1.7h-2V21.7z"/>
		<path class="st2" d="M204.5,17.1h-3.1v1.8h-1.6c-0.9-0.7-1.3-2-1.3-2.8l1-0.7v-3.8h-2.6V9.8h11.7v1.7h-2v10.2h-2.1V17.1z
			 M201.4,11.5v3.7h3v-3.7H201.4z"/>
		<path class="st2" d="M204.7,25.4c0.9,0,1.8-0.4,1.8-1.4c0-0.7-0.5-1.1-1.1-1.1c-0.7,0-1.1,0.3-1.4,0.8l-1.4-1.2
			c0.6-0.8,1.5-1.3,2.9-1.3c1.7,0,3.1,1.1,3.1,2.8c0,1.5-1.1,3.1-3.8,3.1c-2.8,0-4.8-1.7-5.8-3l1.5-1.4
			C201.4,24.3,202.8,25.4,204.7,25.4z"/>
		<path class="st2" d="M205.4,5.5c0.8,0,1.4,0.6,1.4,1.4c0,0.7-0.6,1.3-1.4,1.3c-0.8,0-1.4-0.6-1.4-1.3
			C204.1,6.1,204.7,5.5,205.4,5.5z"/>
		<path class="st2" d="M214.9,21.7V19h-0.1c-0.4,0.5-1.3,1-2.5,1c-2.1,0-3.7-1.5-3.7-3.6c0-2.3,1.9-3.7,3.7-3.7c0.5,0,0.9,0,1.3,0.2
			l0.1,1.8c-0.4-0.1-0.8-0.2-1.2-0.2s-0.7,0.1-1,0.3l3,2.4c0.2-0.3,0.3-0.7,0.3-1.1v-4.4h-7.4V9.8H219v1.7h-2v10.2H214.9z
			 M213.9,17.8l-3.1-2.4c-0.1,0.3-0.2,0.6-0.2,0.9c0,1.1,0.9,1.9,2,1.9C213.1,18.2,213.6,18.1,213.9,17.8z"/>
		<path class="st2" d="M224.8,7.7c0,0.8,0.6,1.6,1.4,2.1h2.6v1.7h-2.4v3H223c-1,0-1.2,0.3-1.2,0.8c0,0.4,0.3,0.9,0.9,1.1l3-0.7
			c0.9,0.3,1.6,1.2,1.6,2.6c0,1.6-1.3,2.6-2.8,2.8v0.1l3,1.8l-2.2,1.2l-3.1-2.7c-2.1,0-2.9-1.1-2.9-2c0-0.6,0.3-1.1,0.8-1.3l2.6,1.7
			h0.4c1.1,0,2.2-0.5,2.2-1.5c0-0.4-0.2-0.7-0.4-0.8l-2.5,0.6c-1.7-0.6-2.8-2-2.8-3.4c0-1.2,0.8-1.9,2.3-1.9h2.4v-1.3H218V9.8h6.2
			V9.7c-0.6-0.4-1.3-1.2-1.3-2.4c0-1.7,1.4-2.7,3-2.7c0.9,0,1.5,0.2,1.9,0.4l-0.6,1.7c-0.3-0.2-0.7-0.3-1.1-0.3
			C225.3,6.4,224.8,7,224.8,7.7z"/>
		<path class="st2" d="M240.6,17.1h-3.1v1.8h-1.6c-0.9-0.7-1.3-2-1.3-2.8l1-0.7v-3.8h-2.6V9.8h11.7v1.7h-2v10.2h-2.1V17.1z
			 M237.5,11.5v3.7h3v-3.7H237.5z"/>
		<path class="st2" d="M240.6,9.9c-1-0.6-2.3-1.8-3.2-2.9l-1.5-1.7l2.3-0.5l4.2,5.1l-1.8,0.1L240.6,9.9z"/>
		<path class="st2" d="M254.1,9.8v1.7h-2.4v3l-2.6,0.7c-1.9,0.5-2.1,1.2-2.1,2.1c0,1,0.8,2,2.4,2c1.2,0,2.2-0.4,3.1-1.4l1,1.7
			c-0.7,0.7-1.5,1.1-2.4,1.3l2.6,2.6l-2.3,0.5l-1.7-2.3l-1.8,2.3l-2.3-0.6l2.6-2.6c-1.9-0.6-3.2-2.2-3.2-4.1c0-1.8,0.9-2.8,3-3.4
			l1.7-0.5v-1.6h-5.9V9.8H254.1z"/>
		<path class="st2" d="M255.1,21.7V11.5h-2V9.8h2c-1-0.6-2.1-1.8-3.1-2.8l-1.5-1.7l2.3-0.5l4.2,5h2.2v1.7h-2v10.2H255.1z"/>
		<path class="st2" d="M268.8,18.6l1.8,2.3l-1.7,1.1l-4.9-6.2l1.6-1.2c0.5,0.6,0.8,0.9,1.5,0.9c0.6,0,0.9-0.3,0.9-1v-3h-4.6V9.8H277
			v1.7h-2v10.2h-2.1V17c-0.4,0.1-0.8,0.1-1.4,0.1c-1,0-1.9-0.2-2.5-0.6c-0.4,0.3-0.8,0.4-1.3,0.5c-0.1,0-0.2,0-0.3,0l0,0.1
			C267.8,17.5,268.1,17.9,268.8,18.6z M272.9,15v-3.6H270v3c0,0.2,0,0.5-0.1,0.6c0.4,0.1,0.8,0.2,1.4,0.2
			C271.8,15.3,272.4,15.2,272.9,15z"/>
		<path class="st2" d="M273.9,5.5c0.8,0,1.4,0.6,1.4,1.4c0,0.7-0.6,1.3-1.4,1.3c-0.8,0-1.4-0.6-1.4-1.3
			C272.5,6.1,273.1,5.5,273.9,5.5z"/>
		<path class="st2" d="M281.7,20c-2.3,0-3.5-1.4-3.5-3c0-1.1,0.5-1.6,0.9-1.9V15h-2.4v-1.8h6.8V15h-1.2c-1.3,0-2,0.7-2,1.7
			c0,0.9,0.6,1.6,1.9,1.6c1.6,0,2.7-1.2,2.7-3.2v-3.6H276V9.8h13v1.7h-2v10.2h-2.1v-3h-0.1C284.4,19.2,283.5,20,281.7,20z"/>
		<path class="st2" d="M298,11.5h-10V9.8h14.1v1.7h-2v10.2H298v-6.3c-0.2-0.2-0.6-0.4-1.1-0.4c-0.8,0-1.2,0.5-1.2,1.6v1.7h-1.9v-1.8
			c0-1-0.5-1.5-1.2-1.5c-0.6,0-1.3,0.4-1.3,1.8c0,1.3,0.7,2.7,2.6,3.7l-1.4,1.4c-2-1.1-3.4-3-3.4-5.2c0-2.4,1.6-3.5,3.2-3.5
			c1.1,0,1.9,0.5,2.3,1.4h0.1c0.2-1,1.1-1.4,1.8-1.4c0.5,0,1.1,0.2,1.4,0.5h0.1V11.5z"/>
		<path class="st2" d="M301.9,15.3l1.5-1.1h4.3v-2.8h-6.6V9.8h10.7v1.7h-2v10.2h-2.1V16h-3v1.9l-1,0.5
			C302.6,17.9,301.9,16.9,301.9,15.3z"/>
		<path class="st2" d="M323.5,17.1h-3.1v1.8h-1.6c-0.9-0.7-1.3-2-1.3-2.8l1-0.7v-3.8h-2.6V9.8h11.7v1.7h-2v10.2h-2.1V17.1z
			 M320.5,11.5v3.7h3v-3.7H320.5z"/>
		<path class="st2" d="M334.3,23.5c-3.4-0.3-5.9-1.6-5.9-4.2c0-0.9,0.4-1.7,1.2-2.3c-0.9-0.5-1.4-1.3-1.4-2.3c0-1.2,0.9-2,2.5-2h2.4
			v-1.4h-6.4V9.8H337v1.7h-2v3h-3.9c-0.7,0-1,0.3-1,0.7c0,0.4,0.3,0.9,0.8,1.2c0.5-0.1,1.1-0.2,1.7-0.2c2,0,3.1,1.3,3.1,2.7
			c0,1-0.5,1.7-0.9,2.2l-1.7-1c0.4-0.4,0.7-0.8,0.7-1.3c0-0.5-0.4-0.8-1.2-0.8c-1.4,0-2.3,0.7-2.3,1.7c0,1.1,1,2.1,4.8,2.4
			L334.3,23.5z"/>
		<path class="st2" d="M340.2,21.7h-2.1V11.5h-2V9.8h6.1v1.7h-2V21.7z"/>
		<path class="st2" d="M348.9,17.1h-3.1v1.8h-1.6c-0.9-0.7-1.3-2-1.3-2.8l1-0.7v-3.8h-2.6V9.8h11.7v1.7h-2v10.2h-2.1V17.1z
			 M345.8,11.5v3.7h3v-3.7H345.8z"/>
		<path class="st2" d="M349.8,5.5c0.8,0,1.4,0.6,1.4,1.4c0,0.7-0.6,1.3-1.4,1.3c-0.8,0-1.3-0.6-1.3-1.3
			C348.5,6.1,349.1,5.5,349.8,5.5z"/>
		<path class="st2" d="M360.7,11.5v3h-3.3c-1.1,0-1.3,0.2-1.3,0.7c0,0.4,0.3,0.9,0.9,1.2l2.9-0.6c1,0.3,1.7,1.4,1.7,2.7
			c0,1.9-1.5,3.3-3.9,3.3c-2.6,0-4.1-1.7-4.9-3.3l1.4-1c0.7,1.5,2,2.6,3.5,2.6c1.2,0,1.9-0.6,1.9-1.6c0-0.4-0.2-0.7-0.4-0.9l-2.6,0.6
			c-1.7-0.7-2.7-2.1-2.7-3.4c0-1.2,0.8-1.9,2.3-1.9h2.3v-1.3h-6.7V9.8H363v1.7H360.7z"/>
		<path class="st2" d="M369.1,19.3c-0.6,0.9-1.4,1.4-2.8,1.4c-2,0-3.2-1.5-3.2-3.7c0-2.3,1.4-3.8,3.4-3.8c1.4,0,2.2,0.8,2.6,1.4
			c0.4-0.6,0.8-1,1.5-1.2v-1.9H362V9.8h14.2v1.7h-3.5v1.9c1.5,0.3,2.4,1.7,2.4,3.6c0,2.3-1.4,3.7-3.4,3.7
			C370.3,20.7,369.4,20,369.1,19.3z M368.4,16.2L368.4,16.2c-0.3-0.8-0.9-1.3-1.7-1.3c-1,0-1.5,0.8-1.5,2.1c0,1.2,0.4,2,1.3,2
			C367.6,19,367.9,17.9,368.4,16.2z M373.1,17c0-1.2-0.4-2-1.4-2c-1.1,0-1.4,1.3-1.9,2.7l0,0.1c0.3,0.8,0.9,1.3,1.7,1.3
			C372.5,19.1,373.1,18.2,373.1,17z"/>
		<path class="st2" d="M388,17.1h-3.1v1.8h-1.6c-0.9-0.7-1.3-2-1.3-2.8l1-0.7v-3.8h-2.6V9.8H392v1.7h-2v10.2H388V17.1z M384.9,11.5
			v3.7h3v-3.7H384.9z"/>
		<path class="st2" d="M396.4,19.5c-2.3,0-4.1-1.7-4.2-4.5c1.5-0.3,2.5-0.8,2.5-2c0-0.5-0.2-1.1-0.6-1.6h-3V9.8h12.1v1.7h-2v10.2
			h-2.1v-3.2H399C398.6,19,397.7,19.5,396.4,19.5z M396.7,17.7c1.5,0,2.4-0.9,2.4-2.4v-3.8H396v0.1c0.5,0.5,0.8,1.1,0.8,1.8
			c0,1.3-1,2.2-2.3,2.4C394.6,16.8,395.3,17.7,396.7,17.7z"/>
		<path class="st2" d="M406.3,21.7h-2.1V11.5h-2V9.8h6.1v1.7h-2V21.7z"/>
		<path class="st2" d="M404.9,7.8c0,0.8,0.6,1.5,1.4,2v0.1h-2.1V9.7c-0.6-0.4-1.2-1.2-1.2-2.3c0-1.6,1.4-2.8,3-2.8
			c0.9,0,1.5,0.2,1.9,0.4l-0.5,1.7c-0.3-0.2-0.7-0.3-1.1-0.3C405.5,6.5,404.9,7,404.9,7.8z"/>
		<path class="st2" d="M413.8,6.4c-1.5,0-2.4,0.7-2.4,2v1.4h2v1.7h-2v10.2h-2.1V11.5h-2V9.8h2V8.4c0-2.4,1.9-3.8,4.5-3.8
			c3.3,0,5.5,1.9,6.2,3l-1.4,1.2C417.8,7.6,416.2,6.4,413.8,6.4z"/>
		<path class="st2" d="M415.6,17c0,1.2,1,1.9,2.2,1.9c0.5,0,1-0.2,1.2-0.4v-1.8l1.4-0.5c0.6,0.3,1.2,0.8,1.2,1.8
			c0,0.7-0.3,1.2-0.7,1.6l2.2,2.6l-2.4,0.6l-1.2-2.4c-0.5,0.1-1,0.2-1.5,0.2c-2.5,0-4.5-1.7-4.5-4.1c0-1.8,1-2.9,3.1-3.4l1.8-0.4
			v-1.4h-6V9.8h10.8v1.7h-2.6v2.8l-2.6,0.6C416.2,15.4,415.6,16,415.6,17z"/>
		<path class="st2" d="M423.5,16.9c0-2.4,1.7-3.5,3.5-3.5h2.4v-1.9h-7.3V9.8h11.4v1.7h-2v10.2h-2.1v-6.5h-2.1c-1,0-1.7,0.6-1.7,1.7
			c0,1.5,0.8,2.7,2.1,3.6l-1.5,1.3C424.9,20.9,423.5,19.2,423.5,16.9z"/>
	</g>
<g id="train_1_">
	<path class="st3" d="M175.1,26.4H92.8C92.9,14.1,103,4.2,115.4,4.3l0,0h59.8"/>
	<path class="st4" d="M128.3,8.6"/>
	<rect x="175.1" y="4.3" class="st5" width="1.4" height="22.1"/>
	<rect x="258" y="4.3" class="st5" width="1.4" height="22.1"/>
	<rect x="340.8" y="4.3" class="st5" width="1.4" height="22.1"/>
	<rect x="423.5" y="4.3" class="st5" width="1.4" height="22.1"/>
	<g>
		<line class="st6" x1="112.2" y1="25.6" x2="120.4" y2="25.6"/>
		<line class="st6" x1="136.3" y1="25.6" x2="163.8" y2="25.6"/>
		<rect x="136.2" y="18.9" class="st4" width="27.6" height="4.5"/>
		<path class="st5" d="M133.4,26.4h-10.2V11.2c-0.1-1.3,0.8-2.4,2.1-2.6h6.2c1.3,0.1,2.2,1.3,2.1,2.6l0,0L133.4,26.4z"/>
		<line class="st7" x1="128.3" y1="8.8" x2="128.3" y2="26.4"/>
		<path class="st5" d="M141.9,9.8h15.9c2.1,0,3.8,1.7,3.8,3.8v0.3c0,2.1-1.7,3.8-3.8,3.8h-15.9c-2.1,0-3.8-1.7-3.8-3.8v-0.3
			C138.1,11.5,139.8,9.8,141.9,9.8z"/>
		<line class="st6" x1="114" y1="5.2" x2="174.9" y2="5.2"/>
		<path class="st5" d="M104.2,15.6c2.1,0,3.8-1.7,3.8-3.8l0,0v-0.3c0-2.1-1.7-3.8-3.8-3.8l0,0h-0.6c-3.1,2-5.9,4.7-7.6,7.9
			L104.2,15.6z"/>
	</g>
	<path class="st8" d="M130.5,0h16.7c2.4,0,4.3,1.9,4.3,4.3l0,0h-25.3C126.2,2,128.1,0,130.5,0z"/>
	<path class="st8" d="M450.3,0H467c2.4,0,4.3,1.9,4.3,4.3l0,0H446C446,2,447.9,0,450.3,0z"/>
	<rect x="176.5" y="4.3" class="st3" width="81.5" height="22.1"/>
	<g>
		<line class="st6" x1="179.7" y1="25.6" x2="207.3" y2="25.6"/>
		<line class="st6" x1="223.1" y1="25.6" x2="250.7" y2="25.6"/>
		<path class="st5" d="M220.4,26.4h-10.2V11.2c-0.1-1.3,0.8-2.4,2.1-2.6h6.2c1.3,0.1,2.2,1.3,2.1,2.6l0,0L220.4,26.4z"/>
		<line class="st7" x1="215.2" y1="8.8" x2="215.2" y2="26.4"/>
		<path class="st5" d="M185.6,9.8h15.9c2.1,0,3.8,1.7,3.8,3.8v0.3c0,2.1-1.7,3.8-3.8,3.8h-15.9c-2.1,0-3.8-1.7-3.8-3.8v-0.3
			C181.9,11.5,183.5,9.8,185.6,9.8z"/>
		<path class="st5" d="M228.9,9.8h15.9c2.1,0,3.8,1.7,3.8,3.8v0.3c0,2.1-1.7,3.8-3.8,3.8h-15.9c-2.1,0-3.8-1.7-3.8-3.8v-0.3
			C225.1,11.5,226.8,9.8,228.9,9.8z"/>
		<line class="st6" x1="176.5" y1="5.2" x2="257.9" y2="5.2"/>
		<rect x="179.7" y="18.8" class="st4" width="27.6" height="4.5"/>
		<rect x="223.1" y="18.8" class="st4" width="27.6" height="4.5"/>
		<path class="st8" d="M207.9,0h16.7c2.4,0,4.3,1.9,4.3,4.3h-25.3C203.5,1.9,205.5,0,207.9,0z"/>
	</g>
	<rect x="259.3" y="4.3" class="st3" width="81.5" height="22.1"/>
	<g>
		<line class="st6" x1="262.5" y1="25.6" x2="290.1" y2="25.6"/>
		<line class="st6" x1="306" y1="25.6" x2="333.6" y2="25.6"/>
		<path class="st5" d="M303.3,26.4H293V11.2c-0.1-1.3,0.8-2.4,2.1-2.6h6.2c1.3,0.1,2.2,1.3,2.1,2.6l0,0L303.3,26.4z"/>
		<line class="st7" x1="298" y1="8.8" x2="298" y2="26.4"/>
		<path class="st5" d="M268.5,9.8h15.9c2.1,0,3.8,1.7,3.8,3.8v0.3c0,2.1-1.7,3.8-3.8,3.8h-15.9c-2.1,0-3.8-1.7-3.8-3.8v-0.3
			C264.7,11.5,266.4,9.8,268.5,9.8z"/>
		<path class="st5" d="M311.7,9.8h15.9c2.1,0,3.8,1.7,3.8,3.8v0.3c0,2.1-1.7,3.8-3.8,3.8h-15.9c-2.1,0-3.8-1.7-3.8-3.8v-0.3
			C308,11.5,309.6,9.8,311.7,9.8z"/>
		<line class="st6" x1="259.4" y1="5.2" x2="340.8" y2="5.2"/>
		<rect x="262.5" y="18.8" class="st4" width="27.6" height="4.5"/>
		<rect x="306" y="18.8" class="st4" width="27.6" height="4.5"/>
		<path class="st8" d="M290.7,0h16.7c2.4,0,4.3,1.9,4.3,4.3h-25.3C286.3,1.9,288.3,0,290.7,0z"/>
	</g>
	<rect x="342" y="4.3" class="st3" width="81.5" height="22.1"/>
	<g>
		<line class="st6" x1="345.2" y1="25.6" x2="372.8" y2="25.6"/>
		<line class="st6" x1="388.7" y1="25.6" x2="416.3" y2="25.6"/>
		<path class="st5" d="M386,26.4h-10.2V11.2c-0.1-1.3,0.8-2.4,2.1-2.6h6.2c1.3,0.1,2.2,1.3,2.1,2.6l0,0L386,26.4z"/>
		<line class="st7" x1="380.7" y1="8.8" x2="380.7" y2="26.4"/>
		<path class="st5" d="M351.2,9.8H367c2.1,0,3.8,1.7,3.8,3.8v0.3c0,2.1-1.7,3.8-3.8,3.8h-15.9c-2.1,0-3.8-1.7-3.8-3.8v-0.3
			C347.4,11.5,349.1,9.8,351.2,9.8z"/>
		<path class="st5" d="M394.4,9.8h15.9c2.1,0,3.8,1.7,3.8,3.8v0.3c0,2.1-1.7,3.8-3.8,3.8h-15.9c-2.1,0-3.8-1.7-3.8-3.8v-0.3
			C390.7,11.5,392.3,9.8,394.4,9.8z"/>
		<line class="st6" x1="342.1" y1="5.2" x2="423.5" y2="5.2"/>
		<rect x="345.2" y="18.8" class="st4" width="27.6" height="4.5"/>
		<rect x="388.7" y="18.8" class="st4" width="27.6" height="4.5"/>
		<path class="st8" d="M373.4,0h16.7c2.4,0,4.3,1.9,4.3,4.3h-25.3C369,1.9,371,0,373.4,0z"/>
	</g>
	<path class="st3" d="M424.9,4.3h59.8l0,0c12.3-0.1,22.5,9.8,22.6,22.1h-82.3"/>
	<g>
		<line class="st6" x1="479.6" y1="25.6" x2="487.8" y2="25.6"/>
		<line class="st6" x1="436.2" y1="25.6" x2="463.7" y2="25.6"/>
		<rect x="436.3" y="18.9" class="st4" width="27.6" height="4.5"/>
		<path class="st5" d="M466.5,11.2L466.5,11.2c-0.1-1.4,0.8-2.5,2.1-2.6h6.2c1.3,0.2,2.2,1.4,2.1,2.6v15.3h-10.2L466.5,11.2z"/>
		<line class="st7" x1="471.7" y1="26.4" x2="471.7" y2="8.8"/>
		<path class="st5" d="M461.9,13.6v0.3c0,2.1-1.7,3.8-3.8,3.8h-15.9c-2.1,0-3.8-1.7-3.8-3.8v-0.3c0-2.1,1.7-3.8,3.8-3.8h15.9
			C460.2,9.8,461.9,11.5,461.9,13.6z"/>
		<line class="st6" x1="425.1" y1="5.2" x2="486" y2="5.2"/>
		<path class="st5" d="M504.1,15.7c-1.8-3.2-4.5-6-7.6-7.9h-0.6l0,0c-2.1,0-3.8,1.7-3.8,3.8v0.3l0,0c0,2.1,1.7,3.8,3.8,3.8
			L504.1,15.7z"/>
	</g>
</g>
</svg>
