<?xml version="1.0" encoding="utf-8"?>
<!-- Generator: Adobe Illustrator 23.0.6, SVG Export Plug-In . SVG Version: 6.00 Build 0)  -->
<svg version="1.1" id="Layer_1" xmlns="http://www.w3.org/2000/svg" xmlns:xlink="http://www.w3.org/1999/xlink" x="0px" y="0px"
	 viewBox="0 0 600 76.6" style="enable-background:new 0 0 600 76.6;" xml:space="preserve">
<style type="text/css">
	.st0{fill:none;stroke:#E7E6DD;stroke-miterlimit:10;}
	.st1{fill:none;stroke:#E7E6DD;stroke-width:0.93;stroke-miterlimit:10;}
	.st2{fill:#064694;}
	.st3{fill:#006A4E;}
	.st4{fill:#FFFFFF;}
	.st5{fill:#FF0000;}
	.st6{fill:none;stroke:#006A4E;stroke-width:1.8074;stroke-miterlimit:10;}
	.st7{fill:none;stroke:#000000;stroke-width:0.794;stroke-miterlimit:10;}
	.st8{fill:#646964;}
	.st9{fill:#a9aba9;}

	<!-- #mask-train{ background-color:#ababab;fill:#EFEFEF;} -->
	#train_1_{
	transform: translateX(-100%);
    -webkit-animation:linear infinite;
    -webkit-animation-name: run;
    -webkit-animation-duration: 22s;
	<!-- opacity:.5; -->
	}     
	@keyframes run {
		0% { transform: translateX(-100%);  }
  45% { transform: translateX(100%);  }
  50% { transform: translateX(100%);  }
  95% { transform: translateX(-100%);}
  100% { transform: translateX(-100%);  }
  }
</style>
<g id="bridge">
	<g id="bridge_1_">
		<line class="st0" x1="0" y1="26.6" x2="600" y2="26.6"/>
		<line class="st1" x1="16" y1="39.1" x2="584" y2="39.1"/>
		<line class="st1" x1="35.5" y1="38.6" x2="35.5" y2="76.6"/>
		<line class="st1" x1="49.5" y1="38.6" x2="49.5" y2="76.6"/>
		<line class="st1" x1="138.1" y1="38.6" x2="138.1" y2="76.6"/>
		<line class="st1" x1="152.1" y1="38.6" x2="152.1" y2="76.6"/>
		<line class="st1" x1="240.7" y1="38.6" x2="240.7" y2="76.6"/>
		<line class="st1" x1="254.7" y1="38.6" x2="254.7" y2="76.6"/>
		<line class="st1" x1="343.3" y1="38.6" x2="343.3" y2="76.6"/>
		<line class="st1" x1="357.3" y1="38.6" x2="357.3" y2="76.6"/>
		<line class="st1" x1="445.9" y1="38.6" x2="445.9" y2="76.6"/>
		<line class="st1" x1="459.9" y1="38.6" x2="459.9" y2="76.6"/>
		<line class="st1" x1="548.5" y1="38.6" x2="548.5" y2="76.6"/>
		<line class="st1" x1="562.5" y1="38.6" x2="562.5" y2="76.6"/>
	</g>
</g>
<g id="train_1_">
	<path class="st3" d="M175.1,26.4H92.8C92.9,14.1,103,4.2,115.4,4.3l0,0h59.8"/>
	<path class="st4" d="M128.3,8.6"/>
	<rect x="175.1" y="4.3" class="st4" width="1.4" height="22.1"/>
	<rect x="258" y="4.3" class="st4" width="1.4" height="22.1"/>
	<rect x="340.8" y="4.3" class="st4" width="1.4" height="22.1"/>
	<rect x="423.5" y="4.3" class="st4" width="1.4" height="22.1"/>
	<g>
		<line class="st6" x1="112.2" y1="25.6" x2="120.4" y2="25.6"/>
		<line class="st6" x1="136.3" y1="25.6" x2="163.8" y2="25.6"/>
		<rect x="136.2" y="18.9" class="st4" width="27.6" height="4.5"/>
		<path class="st9" d="M133.4,26.4h-10.2V11.2c-0.1-1.3,0.8-2.4,2.1-2.6h6.2c1.3,0.1,2.2,1.3,2.1,2.6l0,0L133.4,26.4z"/>
		<line class="st7" x1="128.3" y1="8.8" x2="128.3" y2="26.4"/>
		<path class="st5" d="M141.9,9.8h15.9c2.1,0,3.8,1.7,3.8,3.8v0.3c0,2.1-1.7,3.8-3.8,3.8h-15.9c-2.1,0-3.8-1.7-3.8-3.8v-0.3
			C138.1,11.5,139.8,9.8,141.9,9.8z"/>
		<line class="st6" x1="114" y1="5.2" x2="174.9" y2="5.2"/>
		<path class="st5" d="M104.2,15.6c2.1,0,3.8-1.7,3.8-3.8l0,0v-0.3c0-2.1-1.7-3.8-3.8-3.8l0,0h-0.6c-3.1,2-5.9,4.7-7.6,7.9
			L104.2,15.6z"/>
	</g>
	<path class="st8" d="M130.5,0h16.7c2.4,0,4.3,1.9,4.3,4.3l0,0h-25.3C126.2,2,128.1,0,130.5,0z"/>
	<path class="st8" d="M450.3,0H467c2.4,0,4.3,1.9,4.3,4.3l0,0H446C446,2,447.9,0,450.3,0z"/>
	<rect x="176.5" y="4.3" class="st3" width="81.5" height="22.1"/>
	<g>
		<line class="st6" x1="179.7" y1="25.6" x2="207.3" y2="25.6"/>
		<line class="st6" x1="223.1" y1="25.6" x2="250.7" y2="25.6"/>
		<path class="st9" d="M220.4,26.4h-10.2V11.2c-0.1-1.3,0.8-2.4,2.1-2.6h6.2c1.3,0.1,2.2,1.3,2.1,2.6l0,0L220.4,26.4z"/>
		<line class="st7" x1="215.2" y1="8.8" x2="215.2" y2="26.4"/>
		<path class="st5" d="M185.6,9.8h15.9c2.1,0,3.8,1.7,3.8,3.8v0.3c0,2.1-1.7,3.8-3.8,3.8h-15.9c-2.1,0-3.8-1.7-3.8-3.8v-0.3
			C181.9,11.5,183.5,9.8,185.6,9.8z"/>
		<path class="st5" d="M228.9,9.8h15.9c2.1,0,3.8,1.7,3.8,3.8v0.3c0,2.1-1.7,3.8-3.8,3.8h-15.9c-2.1,0-3.8-1.7-3.8-3.8v-0.3
			C225.1,11.5,226.8,9.8,228.9,9.8z"/>
		<line class="st6" x1="176.5" y1="5.2" x2="257.9" y2="5.2"/>
		<rect x="179.7" y="18.8" class="st4" width="27.6" height="4.5"/>
		<rect x="223.1" y="18.8" class="st4" width="27.6" height="4.5"/>
		<path class="st8" d="M207.9,0h16.7c2.4,0,4.3,1.9,4.3,4.3h-25.3C203.5,1.9,205.5,0,207.9,0z"/>
	</g>
	<rect x="259.3" y="4.3" class="st3" width="81.5" height="22.1"/>
	<g>
		<line class="st6" x1="262.5" y1="25.6" x2="290.1" y2="25.6"/>
		<line class="st6" x1="306" y1="25.6" x2="333.6" y2="25.6"/>
		<path class="st9" d="M303.3,26.4H293V11.2c-0.1-1.3,0.8-2.4,2.1-2.6h6.2c1.3,0.1,2.2,1.3,2.1,2.6l0,0L303.3,26.4z"/>
		<line class="st7" x1="298" y1="8.8" x2="298" y2="26.4"/>
		<path class="st5" d="M268.5,9.8h15.9c2.1,0,3.8,1.7,3.8,3.8v0.3c0,2.1-1.7,3.8-3.8,3.8h-15.9c-2.1,0-3.8-1.7-3.8-3.8v-0.3
			C264.7,11.5,266.4,9.8,268.5,9.8z"/>
		<path class="st5" d="M311.7,9.8h15.9c2.1,0,3.8,1.7,3.8,3.8v0.3c0,2.1-1.7,3.8-3.8,3.8h-15.9c-2.1,0-3.8-1.7-3.8-3.8v-0.3
			C308,11.5,309.6,9.8,311.7,9.8z"/>
		<line class="st6" x1="259.4" y1="5.2" x2="340.8" y2="5.2"/>
		<rect x="262.5" y="18.8" class="st4" width="27.6" height="4.5"/>
		<rect x="306" y="18.8" class="st4" width="27.6" height="4.5"/>
		<path class="st8" d="M290.7,0h16.7c2.4,0,4.3,1.9,4.3,4.3h-25.3C286.3,1.9,288.3,0,290.7,0z"/>
	</g>
	<rect x="342" y="4.3" class="st3" width="81.5" height="22.1"/>
	<g>
		<line class="st6" x1="345.2" y1="25.6" x2="372.8" y2="25.6"/>
		<line class="st6" x1="388.7" y1="25.6" x2="416.3" y2="25.6"/>
		<path class="st9" d="M386,26.4h-10.2V11.2c-0.1-1.3,0.8-2.4,2.1-2.6h6.2c1.3,0.1,2.2,1.3,2.1,2.6l0,0L386,26.4z"/>
		<line class="st7" x1="380.7" y1="8.8" x2="380.7" y2="26.4"/>
		<path class="st5" d="M351.2,9.8H367c2.1,0,3.8,1.7,3.8,3.8v0.3c0,2.1-1.7,3.8-3.8,3.8h-15.9c-2.1,0-3.8-1.7-3.8-3.8v-0.3
			C347.4,11.5,349.1,9.8,351.2,9.8z"/>
		<path class="st5" d="M394.4,9.8h15.9c2.1,0,3.8,1.7,3.8,3.8v0.3c0,2.1-1.7,3.8-3.8,3.8h-15.9c-2.1,0-3.8-1.7-3.8-3.8v-0.3
			C390.7,11.5,392.3,9.8,394.4,9.8z"/>
		<line class="st6" x1="342.1" y1="5.2" x2="423.5" y2="5.2"/>
		<rect x="345.2" y="18.8" class="st4" width="27.6" height="4.5"/>
		<rect x="388.7" y="18.8" class="st4" width="27.6" height="4.5"/>
		<path class="st8" d="M373.4,0h16.7c2.4,0,4.3,1.9,4.3,4.3h-25.3C369,1.9,371,0,373.4,0z"/>
	</g>
	<path class="st3" d="M424.9,4.3h59.8l0,0c12.3-0.1,22.5,9.8,22.6,22.1h-82.3"/>
	<g>
		<line class="st6" x1="479.6" y1="25.6" x2="487.8" y2="25.6"/>
		<line class="st6" x1="436.2" y1="25.6" x2="463.7" y2="25.6"/>
		<rect x="436.3" y="18.9" class="st4" width="27.6" height="4.5"/>
		<path class="st9" d="M466.5,11.2L466.5,11.2c-0.1-1.4,0.8-2.5,2.1-2.6h6.2c1.3,0.2,2.2,1.4,2.1,2.6v15.3h-10.2L466.5,11.2z"/>
		<line class="st7" x1="471.7" y1="26.4" x2="471.7" y2="8.8"/>
		<path class="st5" d="M461.9,13.6v0.3c0,2.1-1.7,3.8-3.8,3.8h-15.9c-2.1,0-3.8-1.7-3.8-3.8v-0.3c0-2.1,1.7-3.8,3.8-3.8h15.9
			C460.2,9.8,461.9,11.5,461.9,13.6z"/>
		<line class="st6" x1="425.1" y1="5.2" x2="486" y2="5.2"/>
		<path class="st5" d="M504.1,15.7c-1.8-3.2-4.5-6-7.6-7.9h-0.6l0,0c-2.1,0-3.8,1.7-3.8,3.8v0.3l0,0c0,2.1,1.7,3.8,3.8,3.8
			L504.1,15.7z"/>
	</g>
</g>
</svg>
